<svg width="60" height="48" viewBox="0 0 60 48" fill="none" xmlns="http://www.w3.org/2000/svg">
<g filter="url(#filter0_i_716_14670)">
<path d="M8.90039 15.0117C11.4798 15.0117 13.362 15.5677 14.5469 16.6797C15.7318 17.7826 16.3242 19.3047 16.3242 21.2461C16.3242 22.1211 16.1921 22.9596 15.9277 23.7617C15.6634 24.5547 15.2305 25.2611 14.6289 25.8809C14.0365 26.5007 13.2435 26.9928 12.25 27.3574C11.2565 27.7129 10.0306 27.8906 8.57227 27.8906H6.75391V35H2.51562V15.0117H8.90039ZM8.68164 18.4844H6.75391V24.418H8.14844C8.94141 24.418 9.62956 24.3132 10.2129 24.1035C10.7962 23.8939 11.2474 23.5658 11.5664 23.1191C11.8854 22.6725 12.0449 22.0983 12.0449 21.3965C12.0449 20.4121 11.7715 19.6829 11.2246 19.209C10.6777 18.7259 9.83008 18.4844 8.68164 18.4844ZM27.0419 15.0117C28.8557 15.0117 30.3505 15.2305 31.5263 15.668C32.7111 16.1055 33.5907 16.7663 34.1649 17.6504C34.7391 18.5345 35.0263 19.651 35.0263 21C35.0263 21.9115 34.8531 22.709 34.5067 23.3926C34.1604 24.0762 33.7046 24.6549 33.1395 25.1289C32.5744 25.6029 31.9638 25.9902 31.3075 26.291L37.1864 35H32.4833L27.7118 27.3301H25.4559V35H21.2177V15.0117H27.0419ZM26.7411 18.4844H25.4559V23.8848H26.8231C28.2268 23.8848 29.2294 23.6523 29.8309 23.1875C30.4416 22.7135 30.747 22.0208 30.747 21.1094C30.747 20.1615 30.4188 19.487 29.7626 19.0859C29.1154 18.6849 28.1083 18.4844 26.7411 18.4844ZM57.406 24.8145C57.406 27.0658 56.9731 28.9479 56.1072 30.4609C55.2504 31.9648 54.0063 33.0996 52.3748 33.8652C50.7433 34.6217 48.7791 35 46.4822 35H40.822V15.0117H47.0974C49.1938 15.0117 51.0121 15.3854 52.5525 16.1328C54.0929 16.8711 55.2869 17.9694 56.1345 19.4277C56.9822 20.877 57.406 22.6725 57.406 24.8145ZM53.0037 24.9238C53.0037 23.4473 52.7849 22.235 52.3474 21.2871C51.919 20.3301 51.281 19.6237 50.4334 19.168C49.5948 18.7122 48.5558 18.4844 47.3162 18.4844H45.0603V31.5H46.8787C48.9477 31.5 50.4835 30.9486 51.4861 29.8457C52.4978 28.7428 53.0037 27.1022 53.0037 24.9238Z" fill="#D2D2D2"/>
</g>
<defs>
<filter id="filter0_i_716_14670" x="2.51562" y="15.0117" width="54.8904" height="23.9883" filterUnits="userSpaceOnUse" color-interpolation-filters="sRGB">
<feFlood flood-opacity="0" result="BackgroundImageFix"/>
<feBlend mode="normal" in="SourceGraphic" in2="BackgroundImageFix" result="shape"/>
<feColorMatrix in="SourceAlpha" type="matrix" values="0 0 0 0 0 0 0 0 0 0 0 0 0 0 0 0 0 0 127 0" result="hardAlpha"/>
<feOffset dy="4"/>
<feGaussianBlur stdDeviation="2"/>
<feComposite in2="hardAlpha" operator="arithmetic" k2="-1" k3="1"/>
<feColorMatrix type="matrix" values="0 0 0 0 0 0 0 0 0 0 0 0 0 0 0 0 0 0 0.25 0"/>
<feBlend mode="normal" in2="shape" result="effect1_innerShadow_716_14670"/>
</filter>
</defs>
</svg>
